Coordinates
version=1
nRows=11
nColumns=63
inDegrees=yes

Units are S.I. units (second, meters, Newtons, ...)
If the header above contains a line with 'inDegrees', this indicates whether rotational values are in degrees (yes) or radians (no).

endheader
time	pelvis_tilt	pelvis_list	pelvis_rotation	pelvis_tx	pelvis_ty	pelvis_tz	hip_flexion_r	hip_adduction_r	hip_rotation_r	knee_angle_r	knee_angle_r_beta	ankle_angle_r	subtalar_angle_r	mtp_angle_r	hip_flexion_l	hip_adduction_l	hip_rotation_l	knee_angle_l	knee_angle_l_beta	ankle_angle_l	subtalar_angle_l	mtp_angle_l	L5_S1_Flex_Ext	L5_S1_Lat_Bending	L5_S1_axial_rotation	L4_L5_Flex_Ext	L4_L5_Lat_Bending	L4_L5_axial_rotation	L3_L4_Flex_Ext	L3_L4_Lat_Bending	L3_L4_axial_rotation	L2_L3_Flex_Ext	L2_L3_Lat_Bending	L2_L3_axial_rotation	L1_L2_Flex_Ext	L1_L2_Lat_Bending	L1_L2_axial_rotation	L1_T12_Flex_Ext	L1_T12_Lat_Bending	L1_T12_axial_rotation	Abs_r3	Abs_r2	Abs_r1	Abs_t1	Abs_t2	neck_flexion	neck_bending	neck_rotation	arm_flex_r	arm_add_r	arm_rot_r	elbow_flex_r	pro_sup_r	wrist_flex_r	wrist_dev_r	arm_flex_l	arm_add_l	arm_rot_l	elbow_flex_l	pro_sup_l	wrist_flex_l	wrist_dev_l
8.215686	23.464608	18.733537	96.369545	0.044946	1.162935	0.455047	-14.595719	18.364153	-20.073998	16.390391	0.286066	25.352393	18.513214	0.000000	-9.029845	-18.207632	18.676624	24.727977	0.431585	37.539087	-9.577602	0.000000	-2.188501	5.434724	7.176985	-4.064265	7.228183	7.625547	-3.595488	13.213988	7.625547	-2.501237	13.213988	6.279862	-2.032242	11.082489	5.831301	-1.250509	8.418387	5.382739	-15.632242	61.478684	39.916240	0.000000	0.000000	22.251406	-47.465394	-27.035663	189.150128	1.548607	223.050677	0.035861	0.395773	-69.947414	-24.719440	47.706202	47.528979	176.983146	0.075798	0.607487	-69.859119	-23.444900
8.235294	24.069675	18.763626	96.153948	0.043777	1.162074	0.455761	-14.508401	18.855218	-19.923691	16.473979	0.287525	25.259941	18.551200	0.000000	-8.805241	-18.654895	18.661725	25.051262	0.437227	37.823862	-10.171231	0.000000	-2.201515	5.517992	7.512371	-4.088434	7.338929	7.981894	-3.616870	13.416446	7.981894	-2.516112	13.416446	6.573325	-2.044327	11.252289	6.103802	-1.257946	8.547370	5.634278	-15.725205	62.420630	41.781555	0.000000	0.000000	23.332000	-47.897769	-28.603455	191.704920	0.618479	223.189674	0.036178	0.394635	-69.946753	-24.713969	48.172503	49.150864	176.982798	0.077901	0.604669	-69.855248	-23.308712
8.254902	24.193026	18.490944	95.941990	0.044077	1.161723	0.455672	-14.208927	18.905610	-19.726975	16.530809	0.288517	25.243638	18.585775	0.000000	-8.494210	-18.691956	18.384651	25.062590	0.437425	37.826647	-10.543388	0.000000	-2.190506	5.500413	7.579134	-4.067988	7.315549	8.052830	-3.598782	13.373704	8.052830	-2.503529	13.373704	6.631742	-2.034104	11.216442	6.158046	-1.251655	8.520139	5.684350	-15.646564	62.221770	42.152868	0.000000	0.000000	23.425512	-47.352431	-29.071965	191.699220	-0.607395	222.133726	0.036816	0.402167	-69.945336	-24.707721	48.365464	49.544834	175.997733	0.079343	0.598985	-69.852771	-23.207586
8.274510	23.835226	17.923175	95.714915	0.045832	1.161916	0.454766	-13.706453	18.512705	-19.461053	16.557977	0.288991	25.301803	18.607985	0.000000	-8.113461	-18.320359	17.819776	24.759432	0.432134	37.538135	-10.651111	0.000000	-2.156158	5.385357	7.365861	-4.004201	7.162525	7.826227	-3.542352	13.093958	7.826227	-2.464273	13.093958	6.445128	-2.002208	10.981821	5.984762	-1.232029	8.341919	5.524396	-15.401221	60.920240	40.966708	0.000000	0.000000	22.533907	-45.907410	-28.297537	189.146190	-1.978519	219.969373	0.037673	0.417592	-69.943381	-24.701587	48.242030	48.669209	174.020607	0.080028	0.589837	-69.851920	-23.143779
8.294118	23.030914	17.067911	95.463605	0.048872	1.162610	0.453022	-13.006761	17.701907	-19.123100	16.554596	0.288932	25.425355	18.619323	0.000000	-7.669826	-17.568146	16.965152	24.152496	0.421541	36.987354	-10.479803	0.000000	-2.098834	5.182060	6.863014	-3.897745	6.892139	7.291952	-3.448174	12.599660	7.291952	-2.398757	12.599660	6.005137	-1.948977	10.567256	5.576198	-1.199274	8.027010	5.147260	-14.991761	58.620494	38.170022	0.000000	0.000000	20.696220	-43.635586	-26.127292	184.149483	-3.348985	216.783580	0.038612	0.439491	-69.941110	-24.696517	47.774275	46.524077	171.020674	0.079868	0.577310	-69.852876	-23.119177
8.313725	21.838251	15.927685	95.170351	0.052931	1.163725	0.450393	-12.110454	16.512264	-18.708032	16.520767	0.288342	25.610401	18.631854	0.000000	-7.170954	-16.469532	15.885081	23.243551	0.405676	36.183392	-10.121105	0.000000	-2.019062	4.903672	6.066983	-3.749599	6.521884	6.446170	-3.317116	11.922788	6.446170	-2.307586	11.922788	5.308611	-1.874901	9.999568	4.929424	-1.153692	7.595788	4.550238	-14.421956	55.471320	33.742742	0.000000	0.000000	18.011203	-40.641177	-22.433250	176.873277	-4.585614	212.567942	0.039516	0.467169	-69.938756	-24.693406	46.949000	43.132667	167.050570	0.078748	0.559699	-69.855831	-23.134611
8.333333	20.376755	14.521599	94.875405	0.057516	1.165121	0.446940	-11.025442	15.053867	-18.272709	16.444713	0.287014	25.825318	18.645364	0.000000	-6.585951	-15.110365	14.781412	22.106802	0.385836	35.171947	-9.765343	0.000000	-1.917237	4.572641	4.978724	-3.560500	6.081613	5.289894	-3.149828	11.117920	5.289894	-2.191210	11.117920	4.356384	-1.780346	9.324530	4.045213	-1.095509	7.083021	3.734043	-13.694631	51.726630	27.690169	0.000000	0.000000	14.597221	-37.024719	-17.174191	167.581438	-5.626923	207.385530	0.040271	0.497223	-69.936567	-24.692218	45.794231	38.606265	162.089001	0.076685	0.539985	-69.860835	-23.193983
8.352941	18.763414	12.878020	94.537641	0.062199	1.166683	0.442775	-9.762315	13.413938	-17.791523	16.337305	0.285140	26.047912	18.663393	0.000000	-5.921631	-13.583496	13.631411	20.782568	0.362724	34.015587	-9.402844	0.000000	-1.799224	4.210909	3.627738	-3.341339	5.600508	3.854472	-2.955945	10.238403	3.854472	-2.056333	10.238403	3.174271	-1.670759	8.586885	2.947537	-1.028077	6.522697	2.720804	-12.851677	47.634641	20.176392	0.000000	0.000000	10.619614	-32.868668	-10.359322	156.581374	-6.456551	201.228903	0.040792	0.528412	-69.934770	-24.693430	44.376179	33.087354	156.232538	0.073715	0.519362	-69.867863	-23.300528
8.372549	17.137904	11.048835	94.157465	0.066437	1.168268	0.438095	-8.354040	11.711621	-17.292858	16.199370	0.282732	26.243005	18.695051	0.000000	-5.181575	-11.985131	12.602496	19.348789	0.337700	32.752554	-9.240095	0.000000	-1.672334	3.844700	2.048471	-3.105692	5.113451	2.176500	-2.747478	9.348004	2.176500	-1.911311	9.348004	1.792412	-1.552930	7.840113	1.664383	-0.955572	5.955441	1.536353	-11.945317	43.492018	11.392981	0.000000	0.000000	6.280754	-28.313958	-2.079414	144.215976	-7.098059	194.121136	0.041003	0.558675	-69.933574	-24.697360	42.814445	26.760398	149.620616	0.069860	0.497616	-69.876834	-23.456368
8.392157	15.985442	9.482679	93.825442	0.068675	1.169370	0.434823	-7.079696	10.423110	-16.953240	16.094148	0.280896	26.288083	18.748874	0.000000	-4.432554	-10.739742	12.053036	18.271515	0.318898	31.628742	-9.452502	0.000000	-1.579111	3.562472	0.449994	-2.932567	4.738088	0.478118	-2.594321	8.661795	0.478118	-1.804766	8.661795	0.393744	-1.466362	7.264594	0.365620	-0.902304	5.518270	0.337495	-11.279431	40.299400	2.502729	0.000000	0.000000	2.154904	-24.240989	5.793352	131.846107	-8.282142	186.985975	0.040860	0.586268	-69.933166	-24.704468	42.081471	20.720069	142.398053	0.065705	0.479440	-69.886532	-23.849988
8.411765	15.159584	8.480840	93.622545	0.070399	1.170195	0.433206	-6.259859	9.528992	-16.785671	16.007350	0.279381	26.279087	18.776497	0.000000	-3.932928	-9.883199	11.706824	17.586755	0.306947	30.802283	-9.515555	0.000000	-1.526121	3.367218	-0.667491	-2.834160	4.478400	-0.709210	-2.507265	8.187055	-0.709210	-1.744204	8.187055	-0.584055	-1.417156	6.866432	-0.542337	-0.872026	5.215821	-0.500619	-10.900931	38.090647	-3.712387	0.000000	0.000000	-0.751798	-21.464867	11.030465	123.170793	-9.292504	182.895647	0.040561	0.606846	-69.933277	-24.711604	41.759765	16.550204	137.388957	0.062547	0.467486	-69.894033	-24.180363
